<mxfile host="app.diagrams.net" modified="2023-05-15T18:56:36.506Z" agent="Mozilla/5.0 (Windows NT 10.0; Win64; x64) AppleWebKit/537.36 (KHTML, like Gecko) Chrome/113.0.0.0 Safari/537.36" etag="s1J8ozd9sG621m7JBfq2" version="21.3.0" type="device">
  <diagram name="Страница 1" id="tmGl95buImF2qX3oGgl6">
    <mxGraphModel dx="1712" dy="1044" grid="1" gridSize="10" guides="1" tooltips="1" connect="1" arrows="1" fold="1" page="1" pageScale="1" pageWidth="827" pageHeight="1169" math="0" shadow="0">
      <root>
        <mxCell id="0" />
        <mxCell id="1" parent="0" />
        <mxCell id="OobsPb2BsJ8oWwUZHfQ7-51" value="&lt;h2&gt;Field&lt;/h2&gt;" style="swimlane;fontStyle=0;childLayout=stackLayout;horizontal=1;startSize=26;fillColor=none;horizontalStack=0;resizeParent=1;resizeParentMax=0;resizeLast=0;collapsible=1;marginBottom=0;whiteSpace=wrap;html=1;" vertex="1" parent="1">
          <mxGeometry x="766" y="607" width="200" height="78" as="geometry" />
        </mxCell>
        <mxCell id="OobsPb2BsJ8oWwUZHfQ7-52" value="@abstarct" style="text;strokeColor=none;fillColor=none;align=left;verticalAlign=top;spacingLeft=4;spacingRight=4;overflow=hidden;rotatable=0;points=[[0,0.5],[1,0.5]];portConstraint=eastwest;whiteSpace=wrap;html=1;" vertex="1" parent="OobsPb2BsJ8oWwUZHfQ7-51">
          <mxGeometry y="26" width="200" height="26" as="geometry" />
        </mxCell>
        <mxCell id="OobsPb2BsJ8oWwUZHfQ7-53" value="__getitem__" style="text;strokeColor=none;fillColor=none;align=left;verticalAlign=top;spacingLeft=4;spacingRight=4;overflow=hidden;rotatable=0;points=[[0,0.5],[1,0.5]];portConstraint=eastwest;whiteSpace=wrap;html=1;" vertex="1" parent="OobsPb2BsJ8oWwUZHfQ7-51">
          <mxGeometry y="52" width="200" height="26" as="geometry" />
        </mxCell>
        <mxCell id="OobsPb2BsJ8oWwUZHfQ7-75" value="Name" style="swimlane;fontStyle=1;align=center;verticalAlign=top;childLayout=stackLayout;horizontal=1;startSize=26;horizontalStack=0;resizeParent=1;resizeParentMax=0;resizeLast=0;collapsible=1;marginBottom=0;whiteSpace=wrap;html=1;" vertex="1" parent="1">
          <mxGeometry x="290" y="833" width="160" height="86" as="geometry" />
        </mxCell>
        <mxCell id="OobsPb2BsJ8oWwUZHfQ7-76" value="+ value: str" style="text;strokeColor=none;fillColor=none;align=left;verticalAlign=top;spacingLeft=4;spacingRight=4;overflow=hidden;rotatable=0;points=[[0,0.5],[1,0.5]];portConstraint=eastwest;whiteSpace=wrap;html=1;" vertex="1" parent="OobsPb2BsJ8oWwUZHfQ7-75">
          <mxGeometry y="26" width="160" height="26" as="geometry" />
        </mxCell>
        <mxCell id="OobsPb2BsJ8oWwUZHfQ7-77" value="" style="line;strokeWidth=1;fillColor=none;align=left;verticalAlign=middle;spacingTop=-1;spacingLeft=3;spacingRight=3;rotatable=0;labelPosition=right;points=[];portConstraint=eastwest;strokeColor=inherit;" vertex="1" parent="OobsPb2BsJ8oWwUZHfQ7-75">
          <mxGeometry y="52" width="160" height="8" as="geometry" />
        </mxCell>
        <mxCell id="OobsPb2BsJ8oWwUZHfQ7-78" value="+ __init__" style="text;strokeColor=none;fillColor=none;align=left;verticalAlign=top;spacingLeft=4;spacingRight=4;overflow=hidden;rotatable=0;points=[[0,0.5],[1,0.5]];portConstraint=eastwest;whiteSpace=wrap;html=1;" vertex="1" parent="OobsPb2BsJ8oWwUZHfQ7-75">
          <mxGeometry y="60" width="160" height="26" as="geometry" />
        </mxCell>
        <mxCell id="OobsPb2BsJ8oWwUZHfQ7-81" value="&amp;nbsp;+ __getitem__" style="rounded=0;whiteSpace=wrap;html=1;align=left;" vertex="1" parent="1">
          <mxGeometry x="290" y="919" width="160" height="29" as="geometry" />
        </mxCell>
        <mxCell id="OobsPb2BsJ8oWwUZHfQ7-82" value="Phone" style="swimlane;fontStyle=1;align=center;verticalAlign=top;childLayout=stackLayout;horizontal=1;startSize=26;horizontalStack=0;resizeParent=1;resizeParentMax=0;resizeLast=0;collapsible=1;marginBottom=0;whiteSpace=wrap;html=1;" vertex="1" parent="1">
          <mxGeometry x="490" y="833" width="160" height="86" as="geometry" />
        </mxCell>
        <mxCell id="OobsPb2BsJ8oWwUZHfQ7-83" value="+ value: lst" style="text;strokeColor=none;fillColor=none;align=left;verticalAlign=top;spacingLeft=4;spacingRight=4;overflow=hidden;rotatable=0;points=[[0,0.5],[1,0.5]];portConstraint=eastwest;whiteSpace=wrap;html=1;" vertex="1" parent="OobsPb2BsJ8oWwUZHfQ7-82">
          <mxGeometry y="26" width="160" height="26" as="geometry" />
        </mxCell>
        <mxCell id="OobsPb2BsJ8oWwUZHfQ7-84" value="" style="line;strokeWidth=1;fillColor=none;align=left;verticalAlign=middle;spacingTop=-1;spacingLeft=3;spacingRight=3;rotatable=0;labelPosition=right;points=[];portConstraint=eastwest;strokeColor=inherit;" vertex="1" parent="OobsPb2BsJ8oWwUZHfQ7-82">
          <mxGeometry y="52" width="160" height="8" as="geometry" />
        </mxCell>
        <mxCell id="OobsPb2BsJ8oWwUZHfQ7-85" value="+ __init__" style="text;strokeColor=none;fillColor=none;align=left;verticalAlign=top;spacingLeft=4;spacingRight=4;overflow=hidden;rotatable=0;points=[[0,0.5],[1,0.5]];portConstraint=eastwest;whiteSpace=wrap;html=1;" vertex="1" parent="OobsPb2BsJ8oWwUZHfQ7-82">
          <mxGeometry y="60" width="160" height="26" as="geometry" />
        </mxCell>
        <mxCell id="OobsPb2BsJ8oWwUZHfQ7-86" value="&amp;nbsp;+ __getitem__" style="rounded=0;whiteSpace=wrap;html=1;align=left;" vertex="1" parent="1">
          <mxGeometry x="490" y="919" width="160" height="29" as="geometry" />
        </mxCell>
        <mxCell id="OobsPb2BsJ8oWwUZHfQ7-87" value="Birthday" style="swimlane;fontStyle=1;align=center;verticalAlign=top;childLayout=stackLayout;horizontal=1;startSize=26;horizontalStack=0;resizeParent=1;resizeParentMax=0;resizeLast=0;collapsible=1;marginBottom=0;whiteSpace=wrap;html=1;" vertex="1" parent="1">
          <mxGeometry x="690" y="833" width="160" height="86" as="geometry" />
        </mxCell>
        <mxCell id="OobsPb2BsJ8oWwUZHfQ7-88" value="+ value: date" style="text;strokeColor=none;fillColor=none;align=left;verticalAlign=top;spacingLeft=4;spacingRight=4;overflow=hidden;rotatable=0;points=[[0,0.5],[1,0.5]];portConstraint=eastwest;whiteSpace=wrap;html=1;" vertex="1" parent="OobsPb2BsJ8oWwUZHfQ7-87">
          <mxGeometry y="26" width="160" height="26" as="geometry" />
        </mxCell>
        <mxCell id="OobsPb2BsJ8oWwUZHfQ7-89" value="" style="line;strokeWidth=1;fillColor=none;align=left;verticalAlign=middle;spacingTop=-1;spacingLeft=3;spacingRight=3;rotatable=0;labelPosition=right;points=[];portConstraint=eastwest;strokeColor=inherit;" vertex="1" parent="OobsPb2BsJ8oWwUZHfQ7-87">
          <mxGeometry y="52" width="160" height="8" as="geometry" />
        </mxCell>
        <mxCell id="OobsPb2BsJ8oWwUZHfQ7-90" value="+ __init__" style="text;strokeColor=none;fillColor=none;align=left;verticalAlign=top;spacingLeft=4;spacingRight=4;overflow=hidden;rotatable=0;points=[[0,0.5],[1,0.5]];portConstraint=eastwest;whiteSpace=wrap;html=1;" vertex="1" parent="OobsPb2BsJ8oWwUZHfQ7-87">
          <mxGeometry y="60" width="160" height="26" as="geometry" />
        </mxCell>
        <mxCell id="OobsPb2BsJ8oWwUZHfQ7-91" value="&amp;nbsp;+ __getitem__" style="rounded=0;whiteSpace=wrap;html=1;align=left;" vertex="1" parent="1">
          <mxGeometry x="690" y="919" width="160" height="29" as="geometry" />
        </mxCell>
        <mxCell id="OobsPb2BsJ8oWwUZHfQ7-92" value="Email" style="swimlane;fontStyle=1;align=center;verticalAlign=top;childLayout=stackLayout;horizontal=1;startSize=26;horizontalStack=0;resizeParent=1;resizeParentMax=0;resizeLast=0;collapsible=1;marginBottom=0;whiteSpace=wrap;html=1;" vertex="1" parent="1">
          <mxGeometry x="890" y="833" width="160" height="86" as="geometry" />
        </mxCell>
        <mxCell id="OobsPb2BsJ8oWwUZHfQ7-93" value="+ value: str" style="text;strokeColor=none;fillColor=none;align=left;verticalAlign=top;spacingLeft=4;spacingRight=4;overflow=hidden;rotatable=0;points=[[0,0.5],[1,0.5]];portConstraint=eastwest;whiteSpace=wrap;html=1;" vertex="1" parent="OobsPb2BsJ8oWwUZHfQ7-92">
          <mxGeometry y="26" width="160" height="26" as="geometry" />
        </mxCell>
        <mxCell id="OobsPb2BsJ8oWwUZHfQ7-94" value="" style="line;strokeWidth=1;fillColor=none;align=left;verticalAlign=middle;spacingTop=-1;spacingLeft=3;spacingRight=3;rotatable=0;labelPosition=right;points=[];portConstraint=eastwest;strokeColor=inherit;" vertex="1" parent="OobsPb2BsJ8oWwUZHfQ7-92">
          <mxGeometry y="52" width="160" height="8" as="geometry" />
        </mxCell>
        <mxCell id="OobsPb2BsJ8oWwUZHfQ7-95" value="+ __init__" style="text;strokeColor=none;fillColor=none;align=left;verticalAlign=top;spacingLeft=4;spacingRight=4;overflow=hidden;rotatable=0;points=[[0,0.5],[1,0.5]];portConstraint=eastwest;whiteSpace=wrap;html=1;" vertex="1" parent="OobsPb2BsJ8oWwUZHfQ7-92">
          <mxGeometry y="60" width="160" height="26" as="geometry" />
        </mxCell>
        <mxCell id="OobsPb2BsJ8oWwUZHfQ7-96" value="&amp;nbsp;+ __getitem__" style="rounded=0;whiteSpace=wrap;html=1;align=left;" vertex="1" parent="1">
          <mxGeometry x="890" y="919" width="160" height="29" as="geometry" />
        </mxCell>
        <mxCell id="OobsPb2BsJ8oWwUZHfQ7-97" value="Note" style="swimlane;fontStyle=1;align=center;verticalAlign=top;childLayout=stackLayout;horizontal=1;startSize=26;horizontalStack=0;resizeParent=1;resizeParentMax=0;resizeLast=0;collapsible=1;marginBottom=0;whiteSpace=wrap;html=1;" vertex="1" parent="1">
          <mxGeometry x="1090" y="833" width="160" height="86" as="geometry" />
        </mxCell>
        <mxCell id="OobsPb2BsJ8oWwUZHfQ7-98" value="+ value: str" style="text;strokeColor=none;fillColor=none;align=left;verticalAlign=top;spacingLeft=4;spacingRight=4;overflow=hidden;rotatable=0;points=[[0,0.5],[1,0.5]];portConstraint=eastwest;whiteSpace=wrap;html=1;" vertex="1" parent="OobsPb2BsJ8oWwUZHfQ7-97">
          <mxGeometry y="26" width="160" height="26" as="geometry" />
        </mxCell>
        <mxCell id="OobsPb2BsJ8oWwUZHfQ7-99" value="" style="line;strokeWidth=1;fillColor=none;align=left;verticalAlign=middle;spacingTop=-1;spacingLeft=3;spacingRight=3;rotatable=0;labelPosition=right;points=[];portConstraint=eastwest;strokeColor=inherit;" vertex="1" parent="OobsPb2BsJ8oWwUZHfQ7-97">
          <mxGeometry y="52" width="160" height="8" as="geometry" />
        </mxCell>
        <mxCell id="OobsPb2BsJ8oWwUZHfQ7-100" value="+ __init__" style="text;strokeColor=none;fillColor=none;align=left;verticalAlign=top;spacingLeft=4;spacingRight=4;overflow=hidden;rotatable=0;points=[[0,0.5],[1,0.5]];portConstraint=eastwest;whiteSpace=wrap;html=1;" vertex="1" parent="OobsPb2BsJ8oWwUZHfQ7-97">
          <mxGeometry y="60" width="160" height="26" as="geometry" />
        </mxCell>
        <mxCell id="OobsPb2BsJ8oWwUZHfQ7-101" value="&amp;nbsp;+ __getitem__" style="rounded=0;whiteSpace=wrap;html=1;align=left;" vertex="1" parent="1">
          <mxGeometry x="1090" y="919" width="160" height="29" as="geometry" />
        </mxCell>
        <mxCell id="OobsPb2BsJ8oWwUZHfQ7-102" value="Status" style="swimlane;fontStyle=1;align=center;verticalAlign=top;childLayout=stackLayout;horizontal=1;startSize=26;horizontalStack=0;resizeParent=1;resizeParentMax=0;resizeLast=0;collapsible=1;marginBottom=0;whiteSpace=wrap;html=1;" vertex="1" parent="1">
          <mxGeometry x="1290" y="833" width="160" height="116" as="geometry" />
        </mxCell>
        <mxCell id="OobsPb2BsJ8oWwUZHfQ7-103" value="+ value: str&lt;br&gt;status_type" style="text;strokeColor=none;fillColor=none;align=left;verticalAlign=top;spacingLeft=4;spacingRight=4;overflow=hidden;rotatable=0;points=[[0,0.5],[1,0.5]];portConstraint=eastwest;whiteSpace=wrap;html=1;" vertex="1" parent="OobsPb2BsJ8oWwUZHfQ7-102">
          <mxGeometry y="26" width="160" height="32" as="geometry" />
        </mxCell>
        <mxCell id="OobsPb2BsJ8oWwUZHfQ7-104" value="" style="line;strokeWidth=1;fillColor=none;align=left;verticalAlign=middle;spacingTop=-1;spacingLeft=3;spacingRight=3;rotatable=0;labelPosition=right;points=[];portConstraint=eastwest;strokeColor=inherit;" vertex="1" parent="OobsPb2BsJ8oWwUZHfQ7-102">
          <mxGeometry y="58" width="160" height="18" as="geometry" />
        </mxCell>
        <mxCell id="OobsPb2BsJ8oWwUZHfQ7-105" value="+ __init__" style="text;strokeColor=none;fillColor=none;align=left;verticalAlign=top;spacingLeft=4;spacingRight=4;overflow=hidden;rotatable=0;points=[[0,0.5],[1,0.5]];portConstraint=eastwest;whiteSpace=wrap;html=1;" vertex="1" parent="OobsPb2BsJ8oWwUZHfQ7-102">
          <mxGeometry y="76" width="160" height="40" as="geometry" />
        </mxCell>
        <mxCell id="OobsPb2BsJ8oWwUZHfQ7-106" value="&amp;nbsp;+ __getitem__" style="rounded=0;whiteSpace=wrap;html=1;align=left;" vertex="1" parent="1">
          <mxGeometry x="1290" y="943" width="160" height="29" as="geometry" />
        </mxCell>
        <mxCell id="OobsPb2BsJ8oWwUZHfQ7-107" value="" style="endArrow=classic;html=1;rounded=0;entryX=0.487;entryY=1.092;entryDx=0;entryDy=0;entryPerimeter=0;" edge="1" parent="1" target="OobsPb2BsJ8oWwUZHfQ7-53">
          <mxGeometry width="50" height="50" relative="1" as="geometry">
            <mxPoint x="766" y="823" as="sourcePoint" />
            <mxPoint x="816" y="773" as="targetPoint" />
          </mxGeometry>
        </mxCell>
        <mxCell id="OobsPb2BsJ8oWwUZHfQ7-108" value="" style="endArrow=classic;html=1;rounded=0;entryX=0.335;entryY=1.185;entryDx=0;entryDy=0;entryPerimeter=0;" edge="1" parent="1" target="OobsPb2BsJ8oWwUZHfQ7-53">
          <mxGeometry width="50" height="50" relative="1" as="geometry">
            <mxPoint x="570" y="833" as="sourcePoint" />
            <mxPoint x="667" y="697" as="targetPoint" />
          </mxGeometry>
        </mxCell>
        <mxCell id="OobsPb2BsJ8oWwUZHfQ7-109" value="" style="endArrow=classic;html=1;rounded=0;entryX=0.175;entryY=1.092;entryDx=0;entryDy=0;entryPerimeter=0;" edge="1" parent="1" target="OobsPb2BsJ8oWwUZHfQ7-53">
          <mxGeometry width="50" height="50" relative="1" as="geometry">
            <mxPoint x="370" y="833" as="sourcePoint" />
            <mxPoint x="645" y="690" as="targetPoint" />
          </mxGeometry>
        </mxCell>
        <mxCell id="OobsPb2BsJ8oWwUZHfQ7-110" value="" style="endArrow=classic;html=1;rounded=0;entryX=0.599;entryY=1.123;entryDx=0;entryDy=0;entryPerimeter=0;" edge="1" parent="1" target="OobsPb2BsJ8oWwUZHfQ7-53">
          <mxGeometry width="50" height="50" relative="1" as="geometry">
            <mxPoint x="966" y="833" as="sourcePoint" />
            <mxPoint x="1063" y="697" as="targetPoint" />
          </mxGeometry>
        </mxCell>
        <mxCell id="OobsPb2BsJ8oWwUZHfQ7-111" value="" style="endArrow=classic;html=1;rounded=0;entryX=0.751;entryY=1.154;entryDx=0;entryDy=0;entryPerimeter=0;" edge="1" parent="1" target="OobsPb2BsJ8oWwUZHfQ7-53">
          <mxGeometry width="50" height="50" relative="1" as="geometry">
            <mxPoint x="1170" y="833" as="sourcePoint" />
            <mxPoint x="1090" y="688" as="targetPoint" />
          </mxGeometry>
        </mxCell>
        <mxCell id="OobsPb2BsJ8oWwUZHfQ7-112" value="" style="endArrow=classic;html=1;rounded=0;entryX=0.875;entryY=1.123;entryDx=0;entryDy=0;entryPerimeter=0;exitX=0.506;exitY=0;exitDx=0;exitDy=0;exitPerimeter=0;" edge="1" parent="1" source="OobsPb2BsJ8oWwUZHfQ7-102" target="OobsPb2BsJ8oWwUZHfQ7-53">
          <mxGeometry width="50" height="50" relative="1" as="geometry">
            <mxPoint x="1371" y="829" as="sourcePoint" />
            <mxPoint x="1117" y="685" as="targetPoint" />
          </mxGeometry>
        </mxCell>
        <mxCell id="OobsPb2BsJ8oWwUZHfQ7-124" value="&lt;font style=&quot;font-size: 15px;&quot;&gt;&amp;nbsp;+ __init__&lt;br&gt;&amp;nbsp;+ days_to_birthday()&lt;/font&gt;" style="rounded=0;whiteSpace=wrap;html=1;align=left;" vertex="1" parent="1">
          <mxGeometry x="757" y="391" width="220" height="50" as="geometry" />
        </mxCell>
        <mxCell id="OobsPb2BsJ8oWwUZHfQ7-125" value="&lt;h1 style=&quot;margin: 4px 0px 0px; text-align: center; text-decoration: underline;&quot;&gt;&lt;b style=&quot;&quot;&gt;&lt;font style=&quot;font-size: 26px;&quot;&gt;Record&lt;/font&gt;&lt;/b&gt;&lt;/h1&gt;&lt;hr style=&quot;font-size: 20px;&quot;&gt;&lt;p style=&quot;margin: 0px 0px 0px 8px; font-size: 20px;&quot;&gt;&lt;font style=&quot;font-size: 20px;&quot;&gt;-name: str&lt;br&gt;-phone: str&lt;br&gt;-birthday: date&lt;br&gt;-email: str&lt;br&gt;-note: str&lt;br&gt;-status: str&lt;/font&gt;&lt;/p&gt;" style="verticalAlign=top;align=left;overflow=fill;fontSize=12;fontFamily=Helvetica;html=1;whiteSpace=wrap;" vertex="1" parent="1">
          <mxGeometry x="757" y="181" width="220" height="210" as="geometry" />
        </mxCell>
        <mxCell id="OobsPb2BsJ8oWwUZHfQ7-126" value="" style="endArrow=classic;html=1;rounded=0;entryX=0.5;entryY=1;entryDx=0;entryDy=0;exitX=0.5;exitY=0;exitDx=0;exitDy=0;" edge="1" parent="1" source="OobsPb2BsJ8oWwUZHfQ7-51" target="OobsPb2BsJ8oWwUZHfQ7-124">
          <mxGeometry width="50" height="50" relative="1" as="geometry">
            <mxPoint x="910" y="592" as="sourcePoint" />
            <mxPoint x="830" y="447" as="targetPoint" />
          </mxGeometry>
        </mxCell>
      </root>
    </mxGraphModel>
  </diagram>
</mxfile>
